<svg xmlns="http://www.w3.org/2000/svg" xmlns:xlink="http://www.w3.org/1999/xlink" width="2000" zoomAndPan="magnify" viewBox="0 0 1500 1499.999933" height="2000" preserveAspectRatio="xMidYMid meet" version="1.0"><defs><g/><clipPath id="e867c114d5"><path d="M 942 619 L 1030 619 L 1030 685 L 942 685 Z M 942 619 " clip-rule="nonzero"/></clipPath><clipPath id="671bc7054d"><path d="M 941.589844 494.664062 L 1085.59375 568.875 L 1023.753906 688.878906 L 879.75 614.667969 Z M 941.589844 494.664062 " clip-rule="nonzero"/></clipPath><clipPath id="89e8587c5f"><path d="M 941.589844 494.664062 L 1085.59375 568.875 L 1023.753906 688.878906 L 879.75 614.667969 Z M 941.589844 494.664062 " clip-rule="nonzero"/></clipPath><clipPath id="d6e918c641"><path d="M 931 563 L 1034 563 L 1034 591 L 931 591 Z M 931 563 " clip-rule="nonzero"/></clipPath><clipPath id="65db39d716"><path d="M 941.589844 494.664062 L 1085.59375 568.875 L 1023.753906 688.878906 L 879.75 614.667969 Z M 941.589844 494.664062 " clip-rule="nonzero"/></clipPath><clipPath id="a192529bd6"><path d="M 941.589844 494.664062 L 1085.59375 568.875 L 1023.753906 688.878906 L 879.75 614.667969 Z M 941.589844 494.664062 " clip-rule="nonzero"/></clipPath><clipPath id="c94d0f92f4"><path d="M 906 507 L 973 507 L 973 569 L 906 569 Z M 906 507 " clip-rule="nonzero"/></clipPath><clipPath id="6328821c47"><path d="M 941.589844 494.664062 L 1085.59375 568.875 L 1023.753906 688.878906 L 879.75 614.667969 Z M 941.589844 494.664062 " clip-rule="nonzero"/></clipPath><clipPath id="b0c552176b"><path d="M 941.589844 494.664062 L 1085.59375 568.875 L 1023.753906 688.878906 L 879.75 614.667969 Z M 941.589844 494.664062 " clip-rule="nonzero"/></clipPath><clipPath id="66b5ad3a2e"><rect x="0" width="559" y="0" height="253"/></clipPath><clipPath id="89a082bef5"><path d="M 458 532 L 626 532 L 626 683 L 458 683 Z M 458 532 " clip-rule="nonzero"/></clipPath><clipPath id="03a2fa6728"><path d="M 458.921875 570.96875 L 593.039062 532.578125 L 625.027344 644.339844 L 490.914062 682.730469 Z M 458.921875 570.96875 " clip-rule="nonzero"/></clipPath><clipPath id="1945b3ef56"><path d="M 30 104 L 113 104 L 113 149 L 30 149 Z M 30 104 " clip-rule="nonzero"/></clipPath><clipPath id="ee1a26c3ed"><path d="M 0.921875 38.96875 L 135.039062 0.578125 L 167.027344 112.339844 L 32.914062 150.730469 Z M 0.921875 38.96875 " clip-rule="nonzero"/></clipPath><clipPath id="0435958ba6"><path d="M 135.242188 0.519531 L 1.125 38.910156 L 33.117188 150.671875 L 167.230469 112.28125 Z M 135.242188 0.519531 " clip-rule="nonzero"/></clipPath><clipPath id="85ace06488"><path d="M 45 45 L 129 45 L 129 83 L 45 83 Z M 45 45 " clip-rule="nonzero"/></clipPath><clipPath id="1aeac6bc12"><path d="M 0.921875 38.96875 L 135.039062 0.578125 L 167.027344 112.339844 L 32.914062 150.730469 Z M 0.921875 38.96875 " clip-rule="nonzero"/></clipPath><clipPath id="e5ac149bfb"><path d="M 135.242188 0.519531 L 1.125 38.910156 L 33.117188 150.671875 L 167.230469 112.28125 Z M 135.242188 0.519531 " clip-rule="nonzero"/></clipPath><clipPath id="620cdb9072"><path d="M 105 7 L 154 7 L 154 68 L 105 68 Z M 105 7 " clip-rule="nonzero"/></clipPath><clipPath id="e04c66a0d2"><path d="M 0.921875 38.96875 L 135.039062 0.578125 L 167.027344 112.339844 L 32.914062 150.730469 Z M 0.921875 38.96875 " clip-rule="nonzero"/></clipPath><clipPath id="f200f3183a"><path d="M 135.242188 0.519531 L 1.125 38.910156 L 33.117188 150.671875 L 167.230469 112.28125 Z M 135.242188 0.519531 " clip-rule="nonzero"/></clipPath><clipPath id="d469cfc364"><rect x="0" width="168" y="0" height="151"/></clipPath><clipPath id="64d18b064a"><path d="M 668.300781 477.488281 L 879.722656 477.488281 L 879.722656 688.75 L 668.300781 688.75 Z M 668.300781 477.488281 " clip-rule="nonzero"/></clipPath></defs><g clip-path="url(#e867c114d5)"><g clip-path="url(#671bc7054d)"><g clip-path="url(#89e8587c5f)"><path fill="#ff66c4" d="M 1009.421875 651.445312 L 1008.777344 652.703125 L 1008.929688 653.1875 C 1012.019531 652.140625 1013.03125 655.296875 1014.617188 656.550781 C 1016.4375 657.941406 1018.324219 659.222656 1020.28125 660.402344 C 1020.207031 660.929688 1020.113281 661.542969 1019.996094 662.441406 C 1021.097656 662.695312 1023.140625 662.800781 1023.207031 663.226562 C 1023.585938 665.402344 1025.382812 663.164062 1026.066406 664.863281 C 1025.742188 665.75 1025.28125 667.023438 1024.757812 668.449219 L 1026.199219 668.097656 L 1029.433594 672.496094 C 1028.691406 673.265625 1027.9375 674.03125 1026.777344 675.234375 C 1026.875 676.210938 1026.042969 677.945312 1028.285156 679.667969 L 1026.078125 679.417969 C 1024.851562 680.285156 1023.46875 681.28125 1022.023438 682.304688 L 1022.28125 683.324219 L 1018.953125 684.308594 L 1017.664062 680.988281 C 1016.78125 681.746094 1016.25 682.195312 1015.59375 682.738281 L 1012.5 681.355469 L 1011.273438 682.480469 C 1007.507812 680.539062 1004.816406 677.171875 1000.570312 675.085938 L 1000.359375 672.582031 L 998.671875 673.121094 C 998.546875 672.171875 998.441406 671.214844 998.367188 670.804688 C 995.746094 669.226562 993.355469 668.222656 991.5625 666.546875 C 990.222656 665.226562 989.769531 663.015625 988.929688 661.214844 L 986.324219 662.050781 L 985.8125 660.75 L 984.667969 661.046875 C 982.351562 657.453125 977.898438 656.058594 976.097656 652.128906 L 974.144531 652.398438 C 972.601562 650.449219 971.367188 649.46875 970.171875 649.257812 L 969.25 646.5625 C 966.65625 646.183594 964.414062 645.300781 963.464844 642.515625 L 962.113281 642.867188 L 961.285156 640.285156 C 958.667969 641.664062 957.746094 638.160156 955.355469 638.082031 C 955.410156 637.691406 955.5 637.105469 955.636719 636.203125 C 955.03125 636.296875 954.464844 636.527344 954.023438 636.421875 C 953.414062 636.210938 952.878906 635.882812 952.421875 635.429688 C 952.089844 635.140625 952.125 634.347656 951.792969 634.175781 C 951.046875 633.953125 950.289062 633.847656 949.511719 633.855469 L 949.296875 631.078125 C 946.089844 631.941406 944.46875 630.3125 943.328125 628.105469 C 942.46875 626.074219 942.296875 623.984375 942.808594 621.839844 L 947.117188 619.5625 L 951.292969 619.660156 C 952.039062 620.410156 952.871094 621.050781 953.789062 621.574219 C 954.855469 621.804688 955.929688 621.964844 957.019531 622.054688 C 958.109375 622.378906 959.605469 623.554688 960.097656 623.207031 C 961.644531 622.101562 961.292969 625.546875 962.652344 624.074219 C 964.726562 624.902344 967.101562 625.300781 967.953125 627.375 C 969.476562 627.9375 971.554688 628.121094 971.859375 628.953125 C 972.476562 630.667969 973.589844 629.035156 974.164062 629.722656 C 974.675781 630.503906 975.300781 631.183594 976.042969 631.753906 C 976.65625 632.070312 977.554688 631.933594 978.070312 631.976562 C 979.453125 633.019531 980.605469 634.332031 982.007812 634.753906 C 982.90625 635.019531 984.25 635.789062 984.304688 635.742188 C 985.734375 634.363281 985.492188 638.03125 986.875 636.570312 C 988.117188 639.132812 991.699219 638.847656 992.953125 641.5625 C 993.238281 642.175781 994.949219 642.113281 996.429688 642.46875 L 998.507812 645.566406 L 999.53125 645.238281 L 1001.617188 648.144531 L 1003.5625 648.035156 L 1004.734375 651.324219 Z M 1009.421875 651.445312 " fill-opacity="1" fill-rule="nonzero"/></g></g></g><g clip-path="url(#d6e918c641)"><g clip-path="url(#65db39d716)"><g clip-path="url(#a192529bd6)"><path fill="#ff66c4" d="M 1022.609375 578.605469 L 1019.085938 581.722656 L 1018.015625 579.460938 C 1014.253906 582.394531 1010.191406 581.113281 1006.136719 580.835938 L 1006.449219 582.40625 C 1004.496094 581.398438 1003.554688 583.601562 1002.332031 583.703125 L 999.328125 581.332031 C 998.515625 582.410156 997.964844 583.101562 997.335938 583.949219 L 996.746094 582.445312 C 994.269531 583.148438 991.230469 581.328125 989.207031 584.0625 L 984.472656 583.273438 L 984.753906 584.675781 L 979.347656 584.078125 L 979.851562 585.660156 L 975.558594 586.191406 L 975.0625 584.976562 C 972.613281 585.214844 970.933594 587.542969 968.261719 586.882812 L 968.0625 586.105469 C 966.882812 586.265625 965.714844 586.5 964.566406 586.808594 C 963.230469 587.328125 961.929688 587.917969 960.65625 588.574219 L 960.175781 587.472656 C 959.773438 587.757812 959.449219 588.011719 958.761719 588.527344 L 954.882812 588.402344 C 954.585938 588.683594 954.136719 589.097656 953.5625 589.625 L 952.902344 588.175781 C 951.378906 588.890625 949.886719 589.515625 948.382812 590.195312 L 948.003906 589.007812 C 944.71875 591.484375 940.9375 588.519531 937.027344 590.433594 L 931.132812 585.894531 L 934.261719 579.828125 C 936.15625 579.726562 938.957031 580.40625 940.402344 579.289062 C 942.144531 577.96875 944.179688 578.476562 945.839844 577.234375 C 946.824219 576.480469 948.886719 577.140625 950.40625 577.097656 C 952.660156 577.058594 954.203125 575.082031 956.558594 575.050781 C 958.648438 574.839844 960.710938 574.460938 962.738281 573.917969 C 963.984375 573.703125 965.519531 573.984375 966.445312 573.351562 C 967.671875 572.484375 968.410156 572.101562 969.785156 572.957031 C 970.210938 573.179688 971.300781 572.375 972.066406 571.992188 C 974.890625 570.554688 978.078125 571.207031 981.015625 570.367188 C 982.972656 569.933594 984.953125 569.644531 986.953125 569.496094 C 989.136719 570.90625 990.953125 569.472656 992.789062 568.003906 L 995.097656 568.910156 C 995.582031 568.171875 996.027344 567.515625 996.464844 566.839844 C 1000.148438 567.148438 1003.753906 566.75 1007.28125 565.636719 C 1010.199219 564.617188 1013.179688 564.367188 1016.226562 564.894531 C 1017.613281 565.113281 1019.914062 565.820312 1020.894531 563.308594 L 1024.316406 565.074219 L 1028.300781 565.027344 L 1033.101562 569.796875 C 1032.464844 571.523438 1031.085938 573.417969 1031.300781 575.121094 C 1031.605469 577.4375 1028.554688 577.542969 1029.335938 580.332031 L 1027.191406 577.949219 C 1026.886719 578.246094 1026.320312 578.792969 1025.734375 579.347656 C 1025.628906 578.976562 1025.734375 579.347656 1025.914062 579.902344 L 1022.492188 580.375 C 1022.5 580.210938 1022.550781 579.5625 1022.609375 578.605469 Z M 1022.609375 578.605469 " fill-opacity="1" fill-rule="nonzero"/></g></g></g><g clip-path="url(#c94d0f92f4)"><g clip-path="url(#6328821c47)"><g clip-path="url(#b0c552176b)"><path fill="#ff66c4" d="M 932.644531 548.015625 L 933 549.128906 L 930.886719 548.804688 L 930.992188 550.464844 L 928.953125 550.207031 L 927.011719 553.976562 L 924.730469 553.746094 C 924.117188 557.464844 920.363281 558.496094 918.363281 561.125 C 916.363281 563.753906 913.582031 565.542969 911.375 568.019531 L 910.800781 566.226562 L 908.445312 566.433594 L 906.425781 563.894531 C 906.414062 563.597656 906.453125 563.308594 906.542969 563.027344 C 907.542969 561.082031 908.414062 559.070312 909.539062 557.207031 C 910.667969 555.472656 911.894531 553.8125 913.21875 552.222656 C 913.832031 551.152344 914.65625 550.273438 915.683594 549.59375 C 918.71875 548.414062 919.878906 545.203125 922.246094 543.695312 C 924.613281 542.183594 926.089844 539.585938 928.367188 537.925781 C 929.992188 536.753906 931.222656 535.035156 932.835938 533.855469 C 934.988281 532.265625 936.671875 530.222656 938.617188 528.453125 C 940.390625 526.71875 942.289062 525.132812 944.308594 523.695312 C 946.976562 521.980469 948.855469 519.46875 951.222656 517.464844 C 952.785156 516.125 954.070312 514.554688 956.082031 513.851562 C 956.773438 511.207031 959.746094 511.167969 961.039062 509.449219 C 962.328125 507.730469 963.800781 507.871094 965.171875 507.246094 C 968.175781 508.628906 971.125 510.011719 972.789062 513.0625 C 970.644531 515.132812 970.644531 515.132812 970.558594 517.683594 C 968.304688 519.144531 965.585938 520.324219 963.765625 522.339844 C 961.945312 524.355469 959.347656 525.792969 957.347656 527.667969 C 955.347656 529.6875 953.074219 531.332031 950.53125 532.597656 C 948.9375 533.488281 947.667969 534.714844 946.71875 536.273438 C 945.664062 537.707031 943.167969 538.25 942.480469 539.726562 C 941.53125 541.742188 939.484375 541.4375 938.21875 542.761719 C 936.574219 544.496094 934.363281 545.902344 932.644531 548.015625 Z M 932.644531 548.015625 " fill-opacity="1" fill-rule="nonzero"/></g></g></g><g transform="matrix(1, 0, 0, 1, 471, 807)"><g clip-path="url(#66b5ad3a2e)"><g fill="#ff66c4" fill-opacity="1"><g transform="translate(0.908255, 168.569018)"><g><path d="M 78.546875 -96.953125 C 79.296875 -95.773438 79.960938 -94.195312 80.546875 -92.21875 C 81.140625 -90.25 81.4375 -88.203125 81.4375 -86.078125 C 81.4375 -81.910156 80.554688 -78.945312 78.796875 -77.1875 C 77.035156 -75.425781 74.660156 -74.546875 71.671875 -74.546875 L 38.078125 -74.546875 L 38.078125 -56.46875 L 73.109375 -56.46875 C 73.960938 -55.300781 74.679688 -53.753906 75.265625 -51.828125 C 75.859375 -49.910156 76.15625 -47.882812 76.15625 -45.75 C 76.15625 -41.695312 75.273438 -38.789062 73.515625 -37.03125 C 71.753906 -35.269531 69.378906 -34.390625 66.390625 -34.390625 L 38.390625 -34.390625 L 38.390625 -0.640625 C 37.222656 -0.316406 35.382812 0 32.875 0.3125 C 30.363281 0.632812 27.882812 0.796875 25.4375 0.796875 C 22.988281 0.796875 20.828125 0.609375 18.953125 0.234375 C 17.085938 -0.128906 15.515625 -0.789062 14.234375 -1.75 C 12.953125 -2.71875 11.992188 -4.050781 11.359375 -5.75 C 10.722656 -7.457031 10.40625 -9.703125 10.40625 -12.484375 L 10.40625 -82.078125 C 10.40625 -86.660156 11.734375 -90.285156 14.390625 -92.953125 C 17.054688 -95.617188 20.6875 -96.953125 25.28125 -96.953125 Z M 78.546875 -96.953125 "/></g></g></g><g fill="#ff66c4" fill-opacity="1"><g transform="translate(85.859799, 168.569018)"><g><path d="M 10.40625 -82.078125 C 10.40625 -86.660156 11.734375 -90.285156 14.390625 -92.953125 C 17.054688 -95.617188 20.6875 -96.953125 25.28125 -96.953125 L 78.078125 -96.953125 C 78.816406 -95.773438 79.476562 -94.226562 80.0625 -92.3125 C 80.65625 -90.394531 80.953125 -88.367188 80.953125 -86.234375 C 80.953125 -82.179688 80.070312 -79.300781 78.3125 -77.59375 C 76.550781 -75.882812 74.234375 -75.03125 71.359375 -75.03125 L 37.59375 -75.03125 L 37.59375 -60.15625 L 73.59375 -60.15625 C 74.34375 -58.976562 75.007812 -57.457031 75.59375 -55.59375 C 76.175781 -53.726562 76.46875 -51.726562 76.46875 -49.59375 C 76.46875 -45.539062 75.613281 -42.660156 73.90625 -40.953125 C 72.207031 -39.242188 69.914062 -38.390625 67.03125 -38.390625 L 37.59375 -38.390625 L 37.59375 -21.59375 L 78.71875 -21.59375 C 79.457031 -20.425781 80.117188 -18.878906 80.703125 -16.953125 C 81.296875 -15.035156 81.59375 -13.007812 81.59375 -10.875 C 81.59375 -6.820312 80.710938 -3.914062 78.953125 -2.15625 C 77.191406 -0.394531 74.875 0.484375 72 0.484375 L 25.28125 0.484375 C 20.6875 0.484375 17.054688 -0.847656 14.390625 -3.515625 C 11.734375 -6.179688 10.40625 -9.8125 10.40625 -14.40625 Z M 10.40625 -82.078125 "/></g></g></g><g fill="#ff66c4" fill-opacity="1"><g transform="translate(173.531102, 168.569018)"><g><path d="M 25.28125 0.484375 C 20.6875 0.484375 17.054688 -0.847656 14.390625 -3.515625 C 11.734375 -6.179688 10.40625 -9.8125 10.40625 -14.40625 L 10.40625 -97.109375 C 11.570312 -97.328125 13.4375 -97.617188 16 -97.984375 C 18.5625 -98.359375 21.015625 -98.546875 23.359375 -98.546875 C 25.804688 -98.546875 27.960938 -98.359375 29.828125 -97.984375 C 31.703125 -97.617188 33.273438 -96.953125 34.546875 -95.984375 C 35.828125 -95.023438 36.785156 -93.691406 37.421875 -91.984375 C 38.066406 -90.285156 38.390625 -88.046875 38.390625 -85.265625 L 38.390625 -22.078125 L 75.03125 -22.078125 C 75.78125 -20.898438 76.472656 -19.328125 77.109375 -17.359375 C 77.753906 -15.390625 78.078125 -13.335938 78.078125 -11.203125 C 78.078125 -6.929688 77.171875 -3.914062 75.359375 -2.15625 C 73.546875 -0.394531 71.144531 0.484375 68.15625 0.484375 Z M 25.28125 0.484375 "/></g></g></g><g fill="#ff66c4" fill-opacity="1"><g transform="translate(255.60295, 168.569018)"><g><path d="M 38.390625 -0.640625 C 37.222656 -0.316406 35.382812 0 32.875 0.3125 C 30.363281 0.632812 27.882812 0.796875 25.4375 0.796875 C 22.988281 0.796875 20.828125 0.609375 18.953125 0.234375 C 17.085938 -0.128906 15.515625 -0.789062 14.234375 -1.75 C 12.953125 -2.71875 11.992188 -4.050781 11.359375 -5.75 C 10.722656 -7.457031 10.40625 -9.703125 10.40625 -12.484375 L 10.40625 -96.953125 C 11.570312 -97.160156 13.4375 -97.453125 16 -97.828125 C 18.5625 -98.203125 21.015625 -98.390625 23.359375 -98.390625 C 25.804688 -98.390625 27.960938 -98.203125 29.828125 -97.828125 C 31.703125 -97.453125 33.273438 -96.785156 34.546875 -95.828125 C 35.828125 -94.867188 36.785156 -93.535156 37.421875 -91.828125 C 38.066406 -90.117188 38.390625 -87.878906 38.390625 -85.109375 Z M 38.390625 -0.640625 "/></g></g></g><g fill="#ff66c4" fill-opacity="1"><g transform="translate(304.398081, 168.569018)"><g><path d="M 59.828125 -77.4375 C 51.617188 -77.4375 45.328125 -74.925781 40.953125 -69.90625 C 36.578125 -64.894531 34.390625 -57.804688 34.390625 -48.640625 C 34.390625 -39.359375 36.816406 -32.207031 41.671875 -27.1875 C 46.523438 -22.175781 53.0625 -19.671875 61.28125 -19.671875 C 65.644531 -19.671875 69.347656 -20.257812 72.390625 -21.4375 C 75.429688 -22.613281 78.335938 -23.945312 81.109375 -25.4375 C 82.921875 -23.945312 84.332031 -22.160156 85.34375 -20.078125 C 86.363281 -17.992188 86.875 -15.566406 86.875 -12.796875 C 86.875 -8.421875 84.445312 -4.710938 79.59375 -1.671875 C 74.738281 1.359375 67.351562 2.875 57.4375 2.875 C 50.289062 2.875 43.570312 1.863281 37.28125 -0.15625 C 30.988281 -2.1875 25.492188 -5.304688 20.796875 -9.515625 C 16.109375 -13.734375 12.398438 -19.066406 9.671875 -25.515625 C 6.953125 -31.972656 5.59375 -39.679688 5.59375 -48.640625 C 5.59375 -56.953125 6.898438 -64.28125 9.515625 -70.625 C 12.128906 -76.976562 15.703125 -82.335938 20.234375 -86.703125 C 24.765625 -91.078125 30.070312 -94.382812 36.15625 -96.625 C 42.238281 -98.863281 48.742188 -99.984375 55.671875 -99.984375 C 65.484375 -99.984375 73.082031 -98.382812 78.46875 -95.1875 C 83.851562 -91.988281 86.546875 -87.882812 86.546875 -82.875 C 86.546875 -80.101562 85.851562 -77.703125 84.46875 -75.671875 C 83.082031 -73.648438 81.484375 -72.050781 79.671875 -70.875 C 76.898438 -72.6875 73.941406 -74.234375 70.796875 -75.515625 C 67.648438 -76.796875 63.992188 -77.4375 59.828125 -77.4375 Z M 59.828125 -77.4375 "/></g></g></g><g fill="#ff66c4" fill-opacity="1"><g transform="translate(395.748979, 168.569018)"><g><path d="M 38.390625 -0.640625 C 37.222656 -0.316406 35.382812 0 32.875 0.3125 C 30.363281 0.632812 27.882812 0.796875 25.4375 0.796875 C 22.988281 0.796875 20.828125 0.609375 18.953125 0.234375 C 17.085938 -0.128906 15.515625 -0.789062 14.234375 -1.75 C 12.953125 -2.71875 11.992188 -4.050781 11.359375 -5.75 C 10.722656 -7.457031 10.40625 -9.703125 10.40625 -12.484375 L 10.40625 -96.953125 C 11.570312 -97.160156 13.4375 -97.453125 16 -97.828125 C 18.5625 -98.203125 21.015625 -98.390625 23.359375 -98.390625 C 25.804688 -98.390625 27.960938 -98.203125 29.828125 -97.828125 C 31.703125 -97.453125 33.273438 -96.785156 34.546875 -95.828125 C 35.828125 -94.867188 36.785156 -93.535156 37.421875 -91.828125 C 38.066406 -90.117188 38.390625 -87.878906 38.390625 -85.109375 Z M 38.390625 -0.640625 "/></g></g></g><g fill="#ff66c4" fill-opacity="1"><g transform="translate(444.544111, 168.569018)"><g><path d="M 5.59375 -48.640625 C 5.59375 -56.953125 6.898438 -64.304688 9.515625 -70.703125 C 12.128906 -77.109375 15.703125 -82.46875 20.234375 -86.78125 C 24.765625 -91.101562 30.097656 -94.382812 36.234375 -96.625 C 42.367188 -98.863281 49.007812 -99.984375 56.15625 -99.984375 C 63.300781 -99.984375 69.9375 -98.863281 76.0625 -96.625 C 82.195312 -94.382812 87.554688 -91.101562 92.140625 -86.78125 C 96.734375 -82.46875 100.335938 -77.109375 102.953125 -70.703125 C 105.566406 -64.304688 106.875 -56.953125 106.875 -48.640625 C 106.875 -40.316406 105.59375 -32.925781 103.03125 -26.46875 C 100.46875 -20.019531 96.921875 -14.632812 92.390625 -10.3125 C 87.859375 -6 82.5 -2.722656 76.3125 -0.484375 C 70.125 1.753906 63.40625 2.875 56.15625 2.875 C 48.90625 2.875 42.1875 1.726562 36 -0.5625 C 29.8125 -2.851562 24.476562 -6.1875 20 -10.5625 C 15.519531 -14.9375 12 -20.320312 9.4375 -26.71875 C 6.875 -33.113281 5.59375 -40.421875 5.59375 -48.640625 Z M 34.390625 -48.640625 C 34.390625 -38.929688 36.363281 -31.675781 40.3125 -26.875 C 44.257812 -22.070312 49.539062 -19.671875 56.15625 -19.671875 C 62.875 -19.671875 68.207031 -22.070312 72.15625 -26.875 C 76.101562 -31.675781 78.078125 -38.929688 78.078125 -48.640625 C 78.078125 -58.234375 76.128906 -65.429688 72.234375 -70.234375 C 68.335938 -75.035156 63.03125 -77.4375 56.3125 -77.4375 C 49.695312 -77.4375 44.390625 -75.0625 40.390625 -70.3125 C 36.390625 -65.5625 34.390625 -58.335938 34.390625 -48.640625 Z M 34.390625 -48.640625 "/></g></g></g></g></g><g fill="#38b6ff" fill-opacity="1"><g transform="translate(336.937357, 846.180195)"><g><path d="M 53.609375 14.109375 C 51.390625 14.109375 49.425781 13.46875 47.71875 12.1875 C 46.007812 10.90625 45.15625 8.894531 45.15625 6.15625 C 45.15625 4.613281 45.410156 3.03125 45.921875 1.40625 C 46.429688 -0.21875 46.859375 -1.796875 47.203125 -3.328125 C 48.398438 -7.265625 49.597656 -11.03125 50.796875 -14.625 C 51.992188 -18.21875 53.273438 -21.894531 54.640625 -25.65625 C 54.804688 -26.164062 55.144531 -27.0625 55.65625 -28.34375 C 56.175781 -29.625 56.4375 -30.609375 56.4375 -31.296875 C 56.4375 -32.148438 55.835938 -32.75 54.640625 -33.09375 C 54.128906 -33.09375 53.570312 -33.132812 52.96875 -33.21875 C 52.375 -33.300781 51.820312 -33.515625 51.3125 -33.859375 C 50.457031 -34.203125 49.859375 -34.800781 49.515625 -35.65625 C 49.171875 -36.507812 49 -37.28125 49 -37.96875 C 49 -39.507812 49.425781 -41.175781 50.28125 -42.96875 C 51.132812 -44.757812 52.242188 -45.914062 53.609375 -46.4375 C 54.128906 -46.769531 54.898438 -46.9375 55.921875 -46.9375 C 57.117188 -46.9375 58.269531 -46.851562 59.375 -46.6875 C 60.488281 -46.519531 61.390625 -46.691406 62.078125 -47.203125 C 63.273438 -47.710938 64.171875 -49.035156 64.765625 -51.171875 C 65.367188 -53.316406 65.925781 -54.898438 66.4375 -55.921875 C 67.289062 -58.148438 68.1875 -60.332031 69.125 -62.46875 C 70.070312 -64.601562 71.054688 -66.78125 72.078125 -69 C 74.128906 -73.28125 76.179688 -77.515625 78.234375 -81.703125 C 80.296875 -85.890625 82.4375 -90.125 84.65625 -94.40625 C 87.050781 -98.675781 89.570312 -102.992188 92.21875 -107.359375 C 94.875 -111.722656 97.738281 -115.957031 100.8125 -120.0625 C 102.519531 -122.113281 104.65625 -124.675781 107.21875 -127.75 C 109.789062 -130.832031 112.617188 -132.375 115.703125 -132.375 C 117.234375 -132.375 118.851562 -131.726562 120.5625 -130.4375 C 122.28125 -129.15625 123.140625 -127.660156 123.140625 -125.953125 C 123.140625 -123.554688 121.984375 -121.03125 119.671875 -118.375 C 117.359375 -115.726562 115.519531 -113.550781 114.15625 -111.84375 C 111.414062 -108.59375 108.929688 -105.171875 106.703125 -101.578125 C 104.484375 -97.992188 102.347656 -94.40625 100.296875 -90.8125 C 95.679688 -82.769531 91.410156 -74.390625 87.484375 -65.671875 C 86.617188 -63.785156 85.757812 -61.945312 84.90625 -60.15625 C 84.050781 -58.363281 83.195312 -56.523438 82.34375 -54.640625 C 82.175781 -54.296875 81.921875 -53.78125 81.578125 -53.09375 C 81.234375 -52.414062 81.0625 -51.734375 81.0625 -51.046875 C 81.0625 -50.535156 81.40625 -50.28125 82.09375 -50.28125 C 82.257812 -50.28125 82.515625 -50.28125 82.859375 -50.28125 C 87.128906 -50.789062 91.488281 -51.769531 95.9375 -53.21875 C 100.382812 -54.675781 104.578125 -56.257812 108.515625 -57.96875 C 112.617188 -59.6875 116.59375 -61.523438 120.4375 -63.484375 C 124.289062 -65.453125 128.007812 -67.722656 131.59375 -70.296875 C 134.675781 -72.679688 137.671875 -75.285156 140.578125 -78.109375 C 143.484375 -80.929688 146.050781 -83.96875 148.28125 -87.21875 C 151.007812 -90.976562 153.144531 -95.082031 154.6875 -99.53125 C 156.226562 -103.976562 157 -108.679688 157 -113.640625 C 157 -118.085938 156.140625 -121.976562 154.421875 -125.3125 C 152.710938 -128.644531 150.40625 -131.425781 147.5 -133.65625 C 143.226562 -136.90625 137.96875 -139.296875 131.71875 -140.828125 C 125.476562 -142.367188 118.851562 -143.140625 111.84375 -143.140625 C 104.144531 -143.140625 96.488281 -142.328125 88.875 -140.703125 C 81.269531 -139.078125 73.960938 -136.8125 66.953125 -133.90625 C 62.847656 -132.363281 58.828125 -130.484375 54.890625 -128.265625 C 50.960938 -126.046875 47.285156 -123.476562 43.859375 -120.5625 C 40.097656 -117.488281 36.675781 -113.941406 33.59375 -109.921875 C 30.519531 -105.898438 28.984375 -101.15625 28.984375 -95.6875 C 28.984375 -92.78125 29.664062 -89.914062 31.03125 -87.09375 C 32.40625 -84.269531 34.460938 -82.175781 37.203125 -80.8125 C 38.566406 -80.125 40.015625 -79.566406 41.546875 -79.140625 C 43.085938 -78.710938 44.289062 -77.816406 45.15625 -76.453125 C 45.832031 -75.421875 46.171875 -74.222656 46.171875 -72.859375 C 46.171875 -70.804688 45.488281 -69.050781 44.125 -67.59375 C 42.757812 -66.144531 40.960938 -65.421875 38.734375 -65.421875 C 35.828125 -65.421875 32.789062 -66.359375 29.625 -68.234375 C 26.46875 -70.117188 24.117188 -71.914062 22.578125 -73.625 C 19.671875 -76.695312 17.488281 -80.15625 16.03125 -84 C 14.582031 -87.851562 13.859375 -91.832031 13.859375 -95.9375 C 13.859375 -100.21875 14.582031 -104.363281 16.03125 -108.375 C 17.488281 -112.394531 19.5 -116.203125 22.0625 -119.796875 C 24.800781 -123.898438 28.050781 -127.617188 31.8125 -130.953125 C 35.570312 -134.296875 39.421875 -137.25 43.359375 -139.8125 C 52.242188 -145.113281 62.078125 -149.390625 72.859375 -152.640625 C 85.679688 -156.566406 98.59375 -158.53125 111.59375 -158.53125 C 118.09375 -158.53125 124.585938 -157.929688 131.078125 -156.734375 C 137.578125 -155.535156 143.738281 -153.484375 149.5625 -150.578125 C 156.914062 -146.816406 162.6875 -141.601562 166.875 -134.9375 C 171.0625 -128.269531 173.15625 -120.832031 173.15625 -112.625 C 173.15625 -102.53125 170.503906 -93.207031 165.203125 -84.65625 C 159.898438 -76.101562 153.660156 -68.578125 146.484375 -62.078125 C 139.472656 -55.753906 131.429688 -50.582031 122.359375 -46.5625 C 113.296875 -42.539062 104.316406 -39.332031 95.421875 -36.9375 C 93.203125 -36.425781 91.023438 -35.957031 88.890625 -35.53125 C 86.753906 -35.101562 84.570312 -34.632812 82.34375 -34.125 C 80.289062 -33.78125 78.320312 -33.476562 76.4375 -33.21875 C 74.5625 -32.96875 73.195312 -31.726562 72.34375 -29.5 C 70.457031 -25.050781 68.785156 -20.5625 67.328125 -16.03125 C 65.878906 -11.5 64.472656 -6.925781 63.109375 -2.3125 C 62.597656 -1.113281 62.210938 0.378906 61.953125 2.171875 C 61.691406 3.972656 61.222656 5.726562 60.546875 7.4375 C 60.023438 9.320312 59.207031 10.90625 58.09375 12.1875 C 56.988281 13.46875 55.492188 14.109375 53.609375 14.109375 Z M 53.609375 14.109375 "/></g></g></g><g fill="#38b6ff" fill-opacity="1"><g transform="translate(486.754975, 846.180195)"><g><path d="M 20.78125 0.515625 C 16.5 0.515625 12.90625 -0.597656 10 -2.828125 C 7.601562 -4.703125 6.019531 -7.050781 5.25 -9.875 C 4.488281 -12.695312 4.109375 -15.5625 4.109375 -18.46875 C 4.109375 -26.507812 5.6875 -34.421875 8.84375 -42.203125 C 12.007812 -49.984375 16.160156 -56.863281 21.296875 -62.84375 C 23.859375 -66.09375 26.765625 -69.039062 30.015625 -71.6875 C 33.265625 -74.34375 36.6875 -76.695312 40.28125 -78.75 C 43.863281 -80.800781 47.148438 -82.210938 50.140625 -82.984375 C 53.140625 -83.753906 56.691406 -84.140625 60.796875 -84.140625 C 62.679688 -84.140625 64.519531 -83.882812 66.3125 -83.375 C 68.101562 -82.863281 69.859375 -82.609375 71.578125 -82.609375 C 73.109375 -82.609375 74.472656 -82.90625 75.671875 -83.5 C 76.867188 -84.101562 78.066406 -84.40625 79.265625 -84.40625 C 80.972656 -84.40625 82.382812 -83.804688 83.5 -82.609375 C 84.613281 -81.410156 85.171875 -80.039062 85.171875 -78.5 C 85.171875 -76.445312 84.613281 -74.304688 83.5 -72.078125 C 82.382812 -69.859375 81.488281 -67.976562 80.8125 -66.4375 C 79.4375 -63.1875 77.976562 -59.976562 76.4375 -56.8125 C 74.90625 -53.65625 73.625 -50.363281 72.59375 -46.9375 C 71.914062 -44.375 71.191406 -41.640625 70.421875 -38.734375 C 69.648438 -35.828125 69.265625 -33.003906 69.265625 -30.265625 C 69.265625 -26.847656 69.734375 -24.5 70.671875 -23.21875 C 71.609375 -21.9375 72.765625 -21.296875 74.140625 -21.296875 C 76.015625 -21.296875 77.9375 -22.019531 79.90625 -23.46875 C 81.875 -24.925781 83.457031 -26.253906 84.65625 -27.453125 C 87.21875 -30.015625 89.523438 -32.789062 91.578125 -35.78125 C 93.628906 -38.78125 95.507812 -41.816406 97.21875 -44.890625 C 98.082031 -46.253906 98.941406 -47.75 99.796875 -49.375 C 100.648438 -51 101.503906 -52.671875 102.359375 -54.390625 C 104.234375 -58.316406 106.96875 -60.28125 110.5625 -60.28125 C 112.269531 -60.28125 113.507812 -59.722656 114.28125 -58.609375 C 115.050781 -57.503906 115.4375 -56.179688 115.4375 -54.640625 C 115.4375 -52.929688 115.007812 -51.222656 114.15625 -49.515625 C 112.269531 -45.742188 110.171875 -41.722656 107.859375 -37.453125 C 105.554688 -33.179688 103.125 -29.25 100.5625 -25.65625 C 97.476562 -21.375 93.882812 -17.523438 89.78125 -14.109375 C 87.382812 -12.398438 84.859375 -10.859375 82.203125 -9.484375 C 79.554688 -8.117188 76.78125 -7.4375 73.875 -7.4375 C 68.914062 -7.4375 65.320312 -8.503906 63.09375 -10.640625 C 60.875 -12.785156 58.738281 -15.738281 56.6875 -19.5 C 56.007812 -20.519531 55.328125 -21.03125 54.640625 -21.03125 C 53.785156 -21.03125 52.503906 -20.046875 50.796875 -18.078125 C 49.085938 -16.117188 47.71875 -14.625 46.6875 -13.59375 C 44.46875 -11.03125 41.601562 -8.460938 38.09375 -5.890625 C 34.59375 -3.328125 31.300781 -1.535156 28.21875 -0.515625 C 25.65625 0.171875 23.175781 0.515625 20.78125 0.515625 Z M 22.578125 -13.34375 C 24.453125 -13.34375 26.585938 -14.109375 28.984375 -15.640625 C 31.722656 -17.359375 34.160156 -19.457031 36.296875 -21.9375 C 38.429688 -24.414062 40.441406 -26.851562 42.328125 -29.25 C 44.546875 -32.15625 46.765625 -35.0625 48.984375 -37.96875 C 51.210938 -40.875 53.269531 -43.863281 55.15625 -46.9375 C 57.03125 -49.675781 59.125 -52.753906 61.4375 -56.171875 C 63.75 -59.597656 64.90625 -63.019531 64.90625 -66.4375 C 64.90625 -68.144531 64.390625 -69.296875 63.359375 -69.890625 C 62.335938 -70.492188 61.054688 -70.796875 59.515625 -70.796875 C 57.804688 -70.796875 56.09375 -70.582031 54.375 -70.15625 C 52.664062 -69.726562 51.21875 -69.257812 50.03125 -68.75 C 43.863281 -66.1875 38.472656 -62.253906 33.859375 -56.953125 C 29.585938 -52.160156 25.78125 -46.425781 22.4375 -39.75 C 19.101562 -33.082031 17.4375 -26.671875 17.4375 -20.515625 C 17.4375 -18.640625 17.820312 -16.972656 18.59375 -15.515625 C 19.363281 -14.066406 20.691406 -13.34375 22.578125 -13.34375 Z M 22.578125 -13.34375 "/></g></g></g><g fill="#38b6ff" fill-opacity="1"><g transform="translate(573.46447, 846.180195)"><g><path d="M -17.1875 61.3125 C -19.75 61.3125 -21.71875 60.285156 -23.09375 58.234375 C -23.601562 57.378906 -23.984375 56.394531 -24.234375 55.28125 C -24.492188 54.164062 -24.625 53.097656 -24.625 52.078125 C -24.625 48.316406 -24.15625 44.765625 -23.21875 41.421875 C -22.28125 38.085938 -21.378906 34.96875 -20.515625 32.0625 C -19.660156 28.644531 -18.550781 25.097656 -17.1875 21.421875 C -15.820312 17.742188 -14.539062 14.28125 -13.34375 11.03125 C -10.769531 4.707031 -8.070312 -1.570312 -5.25 -7.8125 C -2.4375 -14.0625 0.335938 -20.347656 3.078125 -26.671875 C 5.816406 -33.003906 8.59375 -39.289062 11.40625 -45.53125 C 14.226562 -51.769531 16.753906 -58.140625 18.984375 -64.640625 C 20.003906 -67.890625 20.941406 -71.007812 21.796875 -74 C 22.660156 -77 23.429688 -80.125 24.109375 -83.375 C 24.453125 -84.570312 24.707031 -85.9375 24.875 -87.46875 C 25.050781 -89.007812 25.222656 -90.550781 25.390625 -92.09375 C 25.734375 -94.3125 26.414062 -96.148438 27.4375 -97.609375 C 28.46875 -99.066406 30.097656 -99.796875 32.328125 -99.796875 C 33.347656 -99.796875 34.457031 -99.535156 35.65625 -99.015625 C 36.851562 -98.503906 37.707031 -97.820312 38.21875 -96.96875 C 38.90625 -95.769531 39.332031 -94.53125 39.5 -93.25 C 39.675781 -91.96875 39.765625 -90.726562 39.765625 -89.53125 C 39.765625 -85.425781 39.25 -81.320312 38.21875 -77.21875 C 38.050781 -76.707031 37.835938 -75.9375 37.578125 -74.90625 C 37.328125 -73.882812 37.203125 -73.113281 37.203125 -72.59375 C 37.203125 -71.394531 37.628906 -70.796875 38.484375 -70.796875 C 39.503906 -70.796875 40.785156 -71.566406 42.328125 -73.109375 C 43.867188 -74.648438 45.238281 -75.929688 46.4375 -76.953125 C 49.164062 -79.003906 51.984375 -80.800781 54.890625 -82.34375 C 56.941406 -83.539062 59.164062 -84.476562 61.5625 -85.15625 C 63.957031 -85.84375 66.269531 -86.1875 68.5 -86.1875 C 75.164062 -86.1875 79.609375 -84.050781 81.828125 -79.78125 C 84.054688 -75.507812 85.171875 -70.804688 85.171875 -65.671875 C 85.171875 -63.785156 85.082031 -61.945312 84.90625 -60.15625 C 84.738281 -58.363281 84.484375 -56.695312 84.140625 -55.15625 C 83.628906 -51.738281 82.773438 -48.40625 81.578125 -45.15625 C 80.378906 -41.90625 79.097656 -38.65625 77.734375 -35.40625 C 77.046875 -34.03125 76.316406 -32.660156 75.546875 -31.296875 C 74.773438 -29.929688 74.050781 -28.5625 73.375 -27.1875 C 73.03125 -26.675781 72.644531 -25.992188 72.21875 -25.140625 C 71.789062 -24.285156 71.578125 -23.601562 71.578125 -23.09375 C 71.578125 -22.40625 71.914062 -22.0625 72.59375 -22.0625 C 73.789062 -22.0625 75.113281 -22.488281 76.5625 -23.34375 C 78.019531 -24.195312 79.265625 -24.878906 80.296875 -25.390625 C 81.660156 -26.421875 83.066406 -27.488281 84.515625 -28.59375 C 85.972656 -29.707031 87.300781 -30.863281 88.5 -32.0625 C 90.894531 -34.113281 93.03125 -36.421875 94.90625 -38.984375 C 96.789062 -41.554688 98.675781 -44.125 100.5625 -46.6875 C 101.582031 -48.050781 102.519531 -49.628906 103.375 -51.421875 C 104.238281 -53.222656 105.179688 -54.976562 106.203125 -56.6875 C 107.054688 -58.226562 108.125 -59.125 109.40625 -59.375 C 110.6875 -59.632812 111.585938 -59.765625 112.109375 -59.765625 C 113.640625 -59.765625 115.046875 -59.164062 116.328125 -57.96875 C 117.617188 -56.78125 118.265625 -55.328125 118.265625 -53.609375 C 118.265625 -52.585938 118.050781 -51.601562 117.625 -50.65625 C 117.195312 -49.71875 116.722656 -48.738281 116.203125 -47.71875 C 112.953125 -42.070312 109.316406 -36.769531 105.296875 -31.8125 C 101.285156 -26.851562 96.710938 -22.40625 91.578125 -18.46875 C 89.179688 -16.582031 86.488281 -14.742188 83.5 -12.953125 C 80.507812 -11.160156 77.5625 -9.664062 74.65625 -8.46875 C 72.769531 -7.78125 70.203125 -6.796875 66.953125 -5.515625 C 63.703125 -4.234375 59.515625 -2.992188 54.390625 -1.796875 C 51.648438 -1.109375 48.695312 -0.550781 45.53125 -0.125 C 42.363281 0.300781 38.898438 0.515625 35.140625 0.515625 C 32.578125 0.515625 29.882812 0.171875 27.0625 -0.515625 C 24.238281 -1.203125 22.226562 -2.570312 21.03125 -4.625 C 20.351562 -5.8125 20.015625 -7.003906 20.015625 -8.203125 C 20.015625 -10.429688 21.039062 -12.015625 23.09375 -12.953125 C 25.144531 -13.890625 27.28125 -14.359375 29.5 -14.359375 C 31.039062 -14.359375 32.625 -14.1875 34.25 -13.84375 C 35.875 -13.507812 37.457031 -13.34375 39 -13.34375 C 40.53125 -13.34375 41.9375 -13.554688 43.21875 -13.984375 C 44.507812 -14.410156 45.75 -14.878906 46.9375 -15.390625 C 49.675781 -16.929688 52.03125 -19.113281 54 -21.9375 C 55.96875 -24.757812 57.722656 -27.453125 59.265625 -30.015625 C 62.335938 -35.484375 64.984375 -41.507812 67.203125 -48.09375 C 69.429688 -54.675781 70.628906 -60.453125 70.796875 -65.421875 C 70.796875 -67.472656 70.453125 -69.265625 69.765625 -70.796875 C 69.085938 -72.335938 67.640625 -73.109375 65.421875 -73.109375 C 64.222656 -73.109375 63.023438 -72.9375 61.828125 -72.59375 C 60.628906 -72.25 59.601562 -71.820312 58.75 -71.3125 C 55.84375 -69.945312 53.316406 -68.191406 51.171875 -66.046875 C 49.035156 -63.910156 46.769531 -61.648438 44.375 -59.265625 C 42.15625 -56.867188 39.890625 -54.472656 37.578125 -52.078125 C 35.273438 -49.679688 33.097656 -47.203125 31.046875 -44.640625 C 29.160156 -42.242188 27.363281 -39.71875 25.65625 -37.0625 C 23.945312 -34.414062 22.320312 -31.722656 20.78125 -28.984375 C 17.53125 -23.335938 14.535156 -17.609375 11.796875 -11.796875 C 9.066406 -5.984375 6.414062 -0.0820312 3.84375 5.90625 C 1.113281 12.0625 -1.316406 18.257812 -3.453125 24.5 C -5.597656 30.738281 -7.351562 37.109375 -8.71875 43.609375 C -9.226562 45.316406 -9.65625 46.984375 -10 48.609375 C -10.34375 50.234375 -10.601562 51.816406 -10.78125 53.359375 C -11.113281 55.578125 -11.707031 57.375 -12.5625 58.75 C -13.59375 60.457031 -15.132812 61.3125 -17.1875 61.3125 Z M -17.1875 61.3125 "/></g></g></g><g fill="#38b6ff" fill-opacity="1"><g transform="translate(662.995919, 846.180195)"><g><path d="M 31.046875 0.515625 C 25.910156 0.515625 21.03125 -0.507812 16.40625 -2.5625 C 11.789062 -4.613281 8.375 -8.289062 6.15625 -13.59375 C 4.957031 -16.84375 4.359375 -20.347656 4.359375 -24.109375 C 4.359375 -29.585938 5.507812 -35.019531 7.8125 -40.40625 C 10.125 -45.789062 12.648438 -50.707031 15.390625 -55.15625 C 18.984375 -61.132812 23.34375 -66.773438 28.46875 -72.078125 C 33.601562 -77.378906 39.421875 -81.398438 45.921875 -84.140625 C 47.460938 -84.828125 49.210938 -85.335938 51.171875 -85.671875 C 53.140625 -86.015625 54.976562 -86.1875 56.6875 -86.1875 C 60.789062 -86.1875 64.335938 -84.859375 67.328125 -82.203125 C 70.328125 -79.554688 71.828125 -76.097656 71.828125 -71.828125 C 71.828125 -68.921875 71.1875 -66.015625 69.90625 -63.109375 C 68.625 -60.203125 67.210938 -57.550781 65.671875 -55.15625 C 63.617188 -52.414062 61.222656 -49.890625 58.484375 -47.578125 C 55.753906 -45.273438 52.9375 -43.179688 50.03125 -41.296875 C 48.488281 -40.273438 46.945312 -39.289062 45.40625 -38.34375 C 43.863281 -37.40625 42.238281 -36.597656 40.53125 -35.921875 C 38.820312 -35.234375 37.066406 -34.628906 35.265625 -34.109375 C 33.472656 -33.597656 31.722656 -33.085938 30.015625 -32.578125 C 28.472656 -32.234375 26.757812 -31.804688 24.875 -31.296875 C 23 -30.785156 21.460938 -30.015625 20.265625 -28.984375 C 19.242188 -27.960938 18.734375 -26.335938 18.734375 -24.109375 C 18.734375 -19.835938 20.054688 -16.929688 22.703125 -15.390625 C 25.347656 -13.847656 28.210938 -13.078125 31.296875 -13.078125 C 35.566406 -13.078125 40.007812 -13.929688 44.625 -15.640625 C 49.25 -17.359375 53.441406 -19.414062 57.203125 -21.8125 C 60.285156 -23.6875 63.066406 -25.773438 65.546875 -28.078125 C 68.023438 -30.390625 70.460938 -32.742188 72.859375 -35.140625 C 75.421875 -37.710938 77.8125 -40.492188 80.03125 -43.484375 C 82.257812 -46.472656 84.3125 -49.507812 86.1875 -52.59375 C 87.050781 -53.957031 87.910156 -55.410156 88.765625 -56.953125 C 89.617188 -58.492188 90.8125 -59.601562 92.34375 -60.28125 C 93.375 -60.789062 94.398438 -61.046875 95.421875 -61.046875 C 97.484375 -61.046875 99.195312 -60.28125 100.5625 -58.75 C 101.25 -57.894531 101.59375 -56.78125 101.59375 -55.40625 C 101.59375 -54.382812 101.421875 -53.488281 101.078125 -52.71875 C 100.734375 -51.945312 100.304688 -51.050781 99.796875 -50.03125 C 98.941406 -48.488281 97.914062 -46.816406 96.71875 -45.015625 C 95.519531 -43.222656 94.40625 -41.554688 93.375 -40.015625 C 91.320312 -36.765625 89.226562 -33.726562 87.09375 -30.90625 C 84.957031 -28.082031 82.601562 -25.390625 80.03125 -22.828125 C 74.90625 -17.523438 69.132812 -12.90625 62.71875 -8.96875 C 56.3125 -5.039062 49.515625 -2.304688 42.328125 -0.765625 C 38.566406 0.0859375 34.804688 0.515625 31.046875 0.515625 Z M 28.984375 -45.921875 C 30.691406 -45.921875 32.488281 -46.390625 34.375 -47.328125 C 36.257812 -48.265625 37.882812 -49.078125 39.25 -49.765625 C 40.789062 -50.617188 42.242188 -51.601562 43.609375 -52.71875 C 44.972656 -53.832031 46.253906 -54.898438 47.453125 -55.921875 C 47.972656 -56.429688 49.085938 -57.539062 50.796875 -59.25 C 52.503906 -60.96875 54.125 -62.804688 55.65625 -64.765625 C 57.195312 -66.734375 57.96875 -68.40625 57.96875 -69.78125 C 57.96875 -70.800781 57.671875 -71.4375 57.078125 -71.6875 C 56.484375 -71.945312 55.84375 -72.078125 55.15625 -72.078125 C 53.789062 -72.078125 52.207031 -71.691406 50.40625 -70.921875 C 48.613281 -70.160156 47.117188 -69.351562 45.921875 -68.5 C 44.378906 -67.46875 42.96875 -66.4375 41.6875 -65.40625 C 40.40625 -64.382812 39.078125 -63.191406 37.703125 -61.828125 C 35.316406 -59.429688 33.007812 -56.609375 30.78125 -53.359375 C 30.4375 -52.847656 29.835938 -51.945312 28.984375 -50.65625 C 28.128906 -49.375 27.703125 -48.304688 27.703125 -47.453125 C 27.703125 -46.429688 28.128906 -45.921875 28.984375 -45.921875 Z M 28.984375 -45.921875 "/></g></g></g><g fill="#38b6ff" fill-opacity="1"><g transform="translate(735.082773, 846.180195)"><g><path d="M 35.65625 0 C 32.238281 0 29.375 -0.425781 27.0625 -1.28125 C 24.75 -2.132812 22.398438 -3.757812 20.015625 -6.15625 C 16.585938 -9.570312 14.234375 -13.757812 12.953125 -18.71875 C 11.671875 -23.6875 11.113281 -28.5625 11.28125 -33.34375 C 11.28125 -37.28125 11.664062 -41.257812 12.4375 -45.28125 C 13.207031 -49.300781 14.019531 -53.273438 14.875 -57.203125 C 16.925781 -66.441406 19.578125 -75.25 22.828125 -83.625 C 24.367188 -87.726562 25.953125 -91.875 27.578125 -96.0625 C 29.203125 -100.257812 31.125 -104.410156 33.34375 -108.515625 C 34.375 -110.390625 35.359375 -112.3125 36.296875 -114.28125 C 37.234375 -116.25 38.21875 -118.257812 39.25 -120.3125 C 40.445312 -122.363281 41.859375 -124.628906 43.484375 -127.109375 C 45.109375 -129.585938 46.519531 -131.769531 47.71875 -133.65625 C 49.59375 -136.5625 52.023438 -139.9375 55.015625 -143.78125 C 58.015625 -147.632812 61.3125 -150.96875 64.90625 -153.78125 C 68.5 -156.601562 72.257812 -158.015625 76.1875 -158.015625 C 79.78125 -158.015625 83.03125 -156.5625 85.9375 -153.65625 C 87.476562 -152.289062 88.546875 -150.625 89.140625 -148.65625 C 89.742188 -146.6875 90.046875 -144.675781 90.046875 -142.625 C 90.046875 -138.519531 89.316406 -134.203125 87.859375 -129.671875 C 86.410156 -125.140625 84.828125 -120.820312 83.109375 -116.71875 C 81.398438 -112.613281 79.476562 -108.507812 77.34375 -104.40625 C 75.207031 -100.300781 73.023438 -96.367188 70.796875 -92.609375 C 66.347656 -84.910156 61.390625 -77.640625 55.921875 -70.796875 C 50.453125 -63.960938 44.722656 -57.296875 38.734375 -50.796875 C 37.367188 -49.253906 35.914062 -47.710938 34.375 -46.171875 C 32.832031 -44.628906 31.289062 -43.09375 29.75 -41.5625 C 28.039062 -40.1875 26.757812 -38.6875 25.90625 -37.0625 C 25.050781 -35.4375 24.539062 -33.429688 24.375 -31.046875 C 24.375 -27.109375 25.015625 -23.128906 26.296875 -19.109375 C 27.578125 -15.085938 30.523438 -13.078125 35.140625 -13.078125 C 39.242188 -13.078125 43.175781 -14.660156 46.9375 -17.828125 C 50.707031 -20.992188 53.875 -24.03125 56.4375 -26.9375 C 59.34375 -30.1875 61.90625 -33.476562 64.125 -36.8125 C 66.351562 -40.144531 68.578125 -43.78125 70.796875 -47.71875 C 71.828125 -49.425781 72.726562 -51.003906 73.5 -52.453125 C 74.269531 -53.910156 75.164062 -55.582031 76.1875 -57.46875 C 77.21875 -59.175781 78.757812 -60.03125 80.8125 -60.03125 C 82.6875 -60.03125 84.304688 -59.390625 85.671875 -58.109375 C 87.046875 -56.828125 87.734375 -55.328125 87.734375 -53.609375 C 87.734375 -52.242188 87.390625 -50.875 86.703125 -49.5 C 86.023438 -48.132812 85.34375 -46.851562 84.65625 -45.65625 C 83.800781 -43.601562 82.816406 -41.59375 81.703125 -39.625 C 80.585938 -37.664062 79.347656 -35.742188 77.984375 -33.859375 C 74.910156 -28.734375 71.234375 -23.5625 66.953125 -18.34375 C 62.679688 -13.125 57.9375 -8.757812 52.71875 -5.25 C 47.5 -1.75 41.8125 0 35.65625 0 Z M 31.296875 -61.828125 C 31.804688 -61.828125 32.359375 -62.207031 32.953125 -62.96875 C 33.554688 -63.738281 34.03125 -64.296875 34.375 -64.640625 C 35.0625 -65.328125 35.660156 -66.054688 36.171875 -66.828125 C 36.679688 -67.597656 37.28125 -68.320312 37.96875 -69 C 41.894531 -73.96875 45.738281 -78.972656 49.5 -84.015625 C 53.269531 -89.054688 56.78125 -94.316406 60.03125 -99.796875 C 61.738281 -102.703125 63.53125 -105.90625 65.40625 -109.40625 C 67.289062 -112.914062 68.921875 -116.207031 70.296875 -119.28125 C 71.660156 -122.363281 72.941406 -125.441406 74.140625 -128.515625 C 75.335938 -131.597656 75.9375 -135.019531 75.9375 -138.78125 C 75.9375 -140.664062 75.335938 -141.609375 74.140625 -141.609375 C 73.453125 -141.609375 72.679688 -141.265625 71.828125 -140.578125 C 70.628906 -139.722656 69.515625 -138.738281 68.484375 -137.625 C 67.460938 -136.519531 66.523438 -135.453125 65.671875 -134.421875 C 63.785156 -132.023438 61.945312 -129.5 60.15625 -126.84375 C 58.363281 -124.195312 56.609375 -121.507812 54.890625 -118.78125 C 51.304688 -113.476562 48.101562 -107.960938 45.28125 -102.234375 C 42.457031 -96.503906 39.847656 -90.644531 37.453125 -84.65625 C 36.429688 -81.75 35.363281 -79.007812 34.25 -76.4375 C 33.132812 -73.875 32.148438 -71.140625 31.296875 -68.234375 C 30.953125 -67.035156 30.648438 -66.09375 30.390625 -65.40625 C 30.140625 -64.726562 30.015625 -64.046875 30.015625 -63.359375 C 30.015625 -62.335938 30.441406 -61.828125 31.296875 -61.828125 Z M 31.296875 -61.828125 "/></g></g></g><g fill="#38b6ff" fill-opacity="1"><g transform="translate(794.086308, 846.180195)"><g><path d="M 20.78125 0.515625 C 16.5 0.515625 12.90625 -0.597656 10 -2.828125 C 7.601562 -4.703125 6.019531 -7.050781 5.25 -9.875 C 4.488281 -12.695312 4.109375 -15.5625 4.109375 -18.46875 C 4.109375 -26.507812 5.6875 -34.421875 8.84375 -42.203125 C 12.007812 -49.984375 16.160156 -56.863281 21.296875 -62.84375 C 23.859375 -66.09375 26.765625 -69.039062 30.015625 -71.6875 C 33.265625 -74.34375 36.6875 -76.695312 40.28125 -78.75 C 43.863281 -80.800781 47.148438 -82.210938 50.140625 -82.984375 C 53.140625 -83.753906 56.691406 -84.140625 60.796875 -84.140625 C 62.679688 -84.140625 64.519531 -83.882812 66.3125 -83.375 C 68.101562 -82.863281 69.859375 -82.609375 71.578125 -82.609375 C 73.109375 -82.609375 74.472656 -82.90625 75.671875 -83.5 C 76.867188 -84.101562 78.066406 -84.40625 79.265625 -84.40625 C 80.972656 -84.40625 82.382812 -83.804688 83.5 -82.609375 C 84.613281 -81.410156 85.171875 -80.039062 85.171875 -78.5 C 85.171875 -76.445312 84.613281 -74.304688 83.5 -72.078125 C 82.382812 -69.859375 81.488281 -67.976562 80.8125 -66.4375 C 79.4375 -63.1875 77.976562 -59.976562 76.4375 -56.8125 C 74.90625 -53.65625 73.625 -50.363281 72.59375 -46.9375 C 71.914062 -44.375 71.191406 -41.640625 70.421875 -38.734375 C 69.648438 -35.828125 69.265625 -33.003906 69.265625 -30.265625 C 69.265625 -26.847656 69.734375 -24.5 70.671875 -23.21875 C 71.609375 -21.9375 72.765625 -21.296875 74.140625 -21.296875 C 76.015625 -21.296875 77.9375 -22.019531 79.90625 -23.46875 C 81.875 -24.925781 83.457031 -26.253906 84.65625 -27.453125 C 87.21875 -30.015625 89.523438 -32.789062 91.578125 -35.78125 C 93.628906 -38.78125 95.507812 -41.816406 97.21875 -44.890625 C 98.082031 -46.253906 98.941406 -47.75 99.796875 -49.375 C 100.648438 -51 101.503906 -52.671875 102.359375 -54.390625 C 104.234375 -58.316406 106.96875 -60.28125 110.5625 -60.28125 C 112.269531 -60.28125 113.507812 -59.722656 114.28125 -58.609375 C 115.050781 -57.503906 115.4375 -56.179688 115.4375 -54.640625 C 115.4375 -52.929688 115.007812 -51.222656 114.15625 -49.515625 C 112.269531 -45.742188 110.171875 -41.722656 107.859375 -37.453125 C 105.554688 -33.179688 103.125 -29.25 100.5625 -25.65625 C 97.476562 -21.375 93.882812 -17.523438 89.78125 -14.109375 C 87.382812 -12.398438 84.859375 -10.859375 82.203125 -9.484375 C 79.554688 -8.117188 76.78125 -7.4375 73.875 -7.4375 C 68.914062 -7.4375 65.320312 -8.503906 63.09375 -10.640625 C 60.875 -12.785156 58.738281 -15.738281 56.6875 -19.5 C 56.007812 -20.519531 55.328125 -21.03125 54.640625 -21.03125 C 53.785156 -21.03125 52.503906 -20.046875 50.796875 -18.078125 C 49.085938 -16.117188 47.71875 -14.625 46.6875 -13.59375 C 44.46875 -11.03125 41.601562 -8.460938 38.09375 -5.890625 C 34.59375 -3.328125 31.300781 -1.535156 28.21875 -0.515625 C 25.65625 0.171875 23.175781 0.515625 20.78125 0.515625 Z M 22.578125 -13.34375 C 24.453125 -13.34375 26.585938 -14.109375 28.984375 -15.640625 C 31.722656 -17.359375 34.160156 -19.457031 36.296875 -21.9375 C 38.429688 -24.414062 40.441406 -26.851562 42.328125 -29.25 C 44.546875 -32.15625 46.765625 -35.0625 48.984375 -37.96875 C 51.210938 -40.875 53.269531 -43.863281 55.15625 -46.9375 C 57.03125 -49.675781 59.125 -52.753906 61.4375 -56.171875 C 63.75 -59.597656 64.90625 -63.019531 64.90625 -66.4375 C 64.90625 -68.144531 64.390625 -69.296875 63.359375 -69.890625 C 62.335938 -70.492188 61.054688 -70.796875 59.515625 -70.796875 C 57.804688 -70.796875 56.09375 -70.582031 54.375 -70.15625 C 52.664062 -69.726562 51.21875 -69.257812 50.03125 -68.75 C 43.863281 -66.1875 38.472656 -62.253906 33.859375 -56.953125 C 29.585938 -52.160156 25.78125 -46.425781 22.4375 -39.75 C 19.101562 -33.082031 17.4375 -26.671875 17.4375 -20.515625 C 17.4375 -18.640625 17.820312 -16.972656 18.59375 -15.515625 C 19.363281 -14.066406 20.691406 -13.34375 22.578125 -13.34375 Z M 22.578125 -13.34375 "/></g></g></g><g fill="#38b6ff" fill-opacity="1"><g transform="translate(880.795804, 846.180195)"><g><path d="M 46.4375 -1.03125 C 41.644531 -1.03125 37.707031 -2.566406 34.625 -5.640625 C 31.550781 -8.722656 30.015625 -12.488281 30.015625 -16.9375 C 30.015625 -20.863281 31.039062 -25.007812 33.09375 -29.375 C 35.144531 -33.738281 37.28125 -37.628906 39.5 -41.046875 C 40.695312 -42.753906 41.804688 -44.421875 42.828125 -46.046875 C 43.859375 -47.671875 44.890625 -49.253906 45.921875 -50.796875 C 46.773438 -51.816406 47.753906 -53.050781 48.859375 -54.5 C 49.972656 -55.957031 50.53125 -57.457031 50.53125 -59 C 50.53125 -60.707031 49.503906 -62.160156 47.453125 -63.359375 C 45.398438 -64.554688 43.691406 -65.582031 42.328125 -66.4375 C 41.128906 -67.125 40.019531 -67.46875 39 -67.46875 C 37.457031 -67.46875 36.085938 -66.441406 34.890625 -64.390625 C 34.035156 -62.847656 33.265625 -61.304688 32.578125 -59.765625 C 31.890625 -58.234375 31.117188 -56.695312 30.265625 -55.15625 C 29.585938 -53.789062 28.863281 -52.296875 28.09375 -50.671875 C 27.320312 -49.046875 26.421875 -47.972656 25.390625 -47.453125 C 24.710938 -47.109375 23.859375 -46.9375 22.828125 -46.9375 C 21.285156 -46.9375 19.660156 -47.535156 17.953125 -48.734375 C 16.242188 -49.929688 15.390625 -51.300781 15.390625 -52.84375 C 15.390625 -54.039062 15.773438 -55.320312 16.546875 -56.6875 C 17.316406 -58.0625 18.046875 -59.347656 18.734375 -60.546875 C 19.585938 -62.253906 20.484375 -64.003906 21.421875 -65.796875 C 22.359375 -67.597656 23.253906 -69.351562 24.109375 -71.0625 C 24.453125 -71.914062 24.796875 -72.769531 25.140625 -73.625 C 25.484375 -74.476562 25.65625 -75.332031 25.65625 -76.1875 C 25.65625 -76.363281 25.65625 -76.535156 25.65625 -76.703125 C 25.65625 -77.554688 25.523438 -78.410156 25.265625 -79.265625 C 25.015625 -80.117188 24.800781 -80.972656 24.625 -81.828125 C 24.28125 -83.203125 24.109375 -84.570312 24.109375 -85.9375 C 24.109375 -91.925781 26.503906 -96.546875 31.296875 -99.796875 C 33.347656 -101.328125 35.570312 -102.09375 37.96875 -102.09375 C 40.707031 -102.09375 42.628906 -101.28125 43.734375 -99.65625 C 44.847656 -98.03125 45.40625 -96.28125 45.40625 -94.40625 C 45.40625 -93.375 45.316406 -92.34375 45.140625 -91.3125 C 44.972656 -90.289062 44.71875 -89.269531 44.375 -88.25 C 44.207031 -87.394531 43.992188 -86.492188 43.734375 -85.546875 C 43.484375 -84.609375 43.359375 -83.710938 43.359375 -82.859375 C 43.359375 -80.972656 44.210938 -79.5625 45.921875 -78.625 C 47.628906 -77.6875 49.164062 -76.789062 50.53125 -75.9375 C 53.613281 -73.882812 56.78125 -71.617188 60.03125 -69.140625 C 63.28125 -66.660156 64.90625 -63.28125 64.90625 -59 C 64.90625 -55.582031 63.878906 -52.421875 61.828125 -49.515625 C 59.773438 -46.609375 57.804688 -43.867188 55.921875 -41.296875 C 53.867188 -38.390625 51.6875 -35.140625 49.375 -31.546875 C 47.070312 -27.960938 45.492188 -24.457031 44.640625 -21.03125 C 44.296875 -20.175781 44.125 -19.410156 44.125 -18.734375 C 44.125 -16.160156 45.492188 -14.875 48.234375 -14.875 C 50.109375 -14.875 52.328125 -15.726562 54.890625 -17.4375 C 57.460938 -19.15625 59.816406 -21.039062 61.953125 -23.09375 C 64.085938 -25.144531 65.582031 -26.597656 66.4375 -27.453125 C 69.007812 -30.179688 71.445312 -33.210938 73.75 -36.546875 C 76.0625 -39.890625 78.242188 -43.1875 80.296875 -46.4375 C 82.347656 -50.019531 84.3125 -53.351562 86.1875 -56.4375 C 87.21875 -58.320312 88.84375 -59.265625 91.0625 -59.265625 C 92.09375 -59.265625 93.117188 -59.003906 94.140625 -58.484375 C 96.535156 -57.285156 97.734375 -55.578125 97.734375 -53.359375 C 97.734375 -52.160156 97.5625 -50.960938 97.21875 -49.765625 C 96.539062 -48.222656 95.6875 -46.597656 94.65625 -44.890625 C 93.632812 -43.179688 92.695312 -41.554688 91.84375 -40.015625 C 88.25 -34.035156 83.925781 -27.960938 78.875 -21.796875 C 73.832031 -15.640625 68.40625 -10.679688 62.59375 -6.921875 C 60.195312 -5.210938 57.628906 -3.800781 54.890625 -2.6875 C 52.160156 -1.582031 49.34375 -1.03125 46.4375 -1.03125 Z M 46.4375 -1.03125 "/></g></g></g><g fill="#38b6ff" fill-opacity="1"><g transform="translate(950.317283, 846.180195)"><g><path d="M 47.203125 -105.4375 C 45.492188 -105.4375 44.039062 -105.863281 42.84375 -106.71875 C 41.644531 -107.570312 40.875 -108.722656 40.53125 -110.171875 C 40.1875 -111.628906 40.015625 -113.128906 40.015625 -114.671875 C 40.015625 -117.578125 40.695312 -120.351562 42.0625 -123 C 43.4375 -125.65625 45.492188 -127.582031 48.234375 -128.78125 C 49.253906 -129.289062 50.363281 -129.546875 51.5625 -129.546875 C 53.78125 -129.546875 55.703125 -128.773438 57.328125 -127.234375 C 58.953125 -125.703125 59.765625 -123.566406 59.765625 -120.828125 C 59.765625 -118.265625 58.867188 -115.484375 57.078125 -112.484375 C 55.285156 -109.492188 53.273438 -107.484375 51.046875 -106.453125 C 49.847656 -105.773438 48.566406 -105.4375 47.203125 -105.4375 Z M 25.390625 -5.90625 C 21.972656 -5.90625 19.148438 -6.546875 16.921875 -7.828125 C 14.703125 -9.109375 13.082031 -10.429688 12.0625 -11.796875 C 10.6875 -13.847656 9.695312 -16.070312 9.09375 -18.46875 C 8.5 -20.863281 8.203125 -23.257812 8.203125 -25.65625 C 8.203125 -30.78125 8.972656 -35.953125 10.515625 -41.171875 C 12.054688 -46.390625 13.765625 -51.394531 15.640625 -56.1875 C 16.671875 -58.570312 17.738281 -60.960938 18.84375 -63.359375 C 19.957031 -65.753906 21.03125 -68.148438 22.0625 -70.546875 C 23.082031 -72.765625 24.101562 -75.113281 25.125 -77.59375 C 26.15625 -80.082031 27.613281 -82.179688 29.5 -83.890625 C 31.039062 -85.253906 32.921875 -85.9375 35.140625 -85.9375 C 37.023438 -85.9375 38.566406 -85.378906 39.765625 -84.265625 C 40.960938 -83.160156 41.5625 -81.664062 41.5625 -79.78125 C 41.5625 -77.894531 41.046875 -75.96875 40.015625 -74 C 38.992188 -72.039062 38.140625 -70.375 37.453125 -69 C 36.253906 -66.613281 35.097656 -64.265625 33.984375 -61.953125 C 32.878906 -59.640625 31.726562 -57.285156 30.53125 -54.890625 C 29.5 -52.328125 28.425781 -49.804688 27.3125 -47.328125 C 26.207031 -44.847656 25.226562 -42.238281 24.375 -39.5 C 23.851562 -37.625 23.335938 -35.53125 22.828125 -33.21875 C 22.316406 -30.90625 22.0625 -28.640625 22.0625 -26.421875 C 21.894531 -22.148438 23.347656 -20.015625 26.421875 -20.015625 C 28.128906 -20.015625 30.007812 -20.613281 32.0625 -21.8125 C 34.457031 -23.34375 36.640625 -25.09375 38.609375 -27.0625 C 40.578125 -29.03125 42.328125 -31.125 43.859375 -33.34375 C 45.398438 -35.394531 46.851562 -37.53125 48.21875 -39.75 C 49.59375 -41.976562 50.960938 -44.207031 52.328125 -46.4375 C 53.015625 -47.457031 53.742188 -48.566406 54.515625 -49.765625 C 55.285156 -50.960938 55.925781 -52.078125 56.4375 -53.109375 C 57.125 -54.296875 57.722656 -55.398438 58.234375 -56.421875 C 58.742188 -57.453125 59.597656 -58.3125 60.796875 -59 C 62.160156 -59.6875 63.359375 -60.03125 64.390625 -60.03125 C 66.097656 -60.03125 67.550781 -59.515625 68.75 -58.484375 C 69.945312 -57.460938 70.546875 -56.007812 70.546875 -54.125 C 70.546875 -52.757812 70.203125 -51.4375 69.515625 -50.15625 C 68.835938 -48.875 68.238281 -47.632812 67.71875 -46.4375 C 67.039062 -45.0625 66.359375 -43.734375 65.671875 -42.453125 C 64.984375 -41.171875 64.210938 -39.847656 63.359375 -38.484375 C 60.285156 -33.003906 56.867188 -27.785156 53.109375 -22.828125 C 49.335938 -18.210938 45.144531 -14.238281 40.53125 -10.90625 C 35.914062 -7.570312 30.867188 -5.90625 25.390625 -5.90625 Z M 25.390625 -5.90625 "/></g></g></g><g fill="#38b6ff" fill-opacity="1"><g transform="translate(992.1328, 846.180195)"><g><path d="M 20.78125 0.515625 C 16.5 0.515625 12.90625 -0.597656 10 -2.828125 C 7.601562 -4.703125 6.019531 -7.050781 5.25 -9.875 C 4.488281 -12.695312 4.109375 -15.5625 4.109375 -18.46875 C 4.109375 -26.507812 5.6875 -34.421875 8.84375 -42.203125 C 12.007812 -49.984375 16.160156 -56.863281 21.296875 -62.84375 C 23.859375 -66.09375 26.765625 -69.039062 30.015625 -71.6875 C 33.265625 -74.34375 36.6875 -76.695312 40.28125 -78.75 C 43.863281 -80.800781 47.148438 -82.210938 50.140625 -82.984375 C 53.140625 -83.753906 56.691406 -84.140625 60.796875 -84.140625 C 62.679688 -84.140625 64.519531 -83.882812 66.3125 -83.375 C 68.101562 -82.863281 69.859375 -82.609375 71.578125 -82.609375 C 73.109375 -82.609375 74.472656 -82.90625 75.671875 -83.5 C 76.867188 -84.101562 78.066406 -84.40625 79.265625 -84.40625 C 80.972656 -84.40625 82.382812 -83.804688 83.5 -82.609375 C 84.613281 -81.410156 85.171875 -80.039062 85.171875 -78.5 C 85.171875 -76.445312 84.613281 -74.304688 83.5 -72.078125 C 82.382812 -69.859375 81.488281 -67.976562 80.8125 -66.4375 C 79.4375 -63.1875 77.976562 -59.976562 76.4375 -56.8125 C 74.90625 -53.65625 73.625 -50.363281 72.59375 -46.9375 C 71.914062 -44.375 71.191406 -41.640625 70.421875 -38.734375 C 69.648438 -35.828125 69.265625 -33.003906 69.265625 -30.265625 C 69.265625 -26.847656 69.734375 -24.5 70.671875 -23.21875 C 71.609375 -21.9375 72.765625 -21.296875 74.140625 -21.296875 C 76.015625 -21.296875 77.9375 -22.019531 79.90625 -23.46875 C 81.875 -24.925781 83.457031 -26.253906 84.65625 -27.453125 C 87.21875 -30.015625 89.523438 -32.789062 91.578125 -35.78125 C 93.628906 -38.78125 95.507812 -41.816406 97.21875 -44.890625 C 98.082031 -46.253906 98.941406 -47.75 99.796875 -49.375 C 100.648438 -51 101.503906 -52.671875 102.359375 -54.390625 C 104.234375 -58.316406 106.96875 -60.28125 110.5625 -60.28125 C 112.269531 -60.28125 113.507812 -59.722656 114.28125 -58.609375 C 115.050781 -57.503906 115.4375 -56.179688 115.4375 -54.640625 C 115.4375 -52.929688 115.007812 -51.222656 114.15625 -49.515625 C 112.269531 -45.742188 110.171875 -41.722656 107.859375 -37.453125 C 105.554688 -33.179688 103.125 -29.25 100.5625 -25.65625 C 97.476562 -21.375 93.882812 -17.523438 89.78125 -14.109375 C 87.382812 -12.398438 84.859375 -10.859375 82.203125 -9.484375 C 79.554688 -8.117188 76.78125 -7.4375 73.875 -7.4375 C 68.914062 -7.4375 65.320312 -8.503906 63.09375 -10.640625 C 60.875 -12.785156 58.738281 -15.738281 56.6875 -19.5 C 56.007812 -20.519531 55.328125 -21.03125 54.640625 -21.03125 C 53.785156 -21.03125 52.503906 -20.046875 50.796875 -18.078125 C 49.085938 -16.117188 47.71875 -14.625 46.6875 -13.59375 C 44.46875 -11.03125 41.601562 -8.460938 38.09375 -5.890625 C 34.59375 -3.328125 31.300781 -1.535156 28.21875 -0.515625 C 25.65625 0.171875 23.175781 0.515625 20.78125 0.515625 Z M 22.578125 -13.34375 C 24.453125 -13.34375 26.585938 -14.109375 28.984375 -15.640625 C 31.722656 -17.359375 34.160156 -19.457031 36.296875 -21.9375 C 38.429688 -24.414062 40.441406 -26.851562 42.328125 -29.25 C 44.546875 -32.15625 46.765625 -35.0625 48.984375 -37.96875 C 51.210938 -40.875 53.269531 -43.863281 55.15625 -46.9375 C 57.03125 -49.675781 59.125 -52.753906 61.4375 -56.171875 C 63.75 -59.597656 64.90625 -63.019531 64.90625 -66.4375 C 64.90625 -68.144531 64.390625 -69.296875 63.359375 -69.890625 C 62.335938 -70.492188 61.054688 -70.796875 59.515625 -70.796875 C 57.804688 -70.796875 56.09375 -70.582031 54.375 -70.15625 C 52.664062 -69.726562 51.21875 -69.257812 50.03125 -68.75 C 43.863281 -66.1875 38.472656 -62.253906 33.859375 -56.953125 C 29.585938 -52.160156 25.78125 -46.425781 22.4375 -39.75 C 19.101562 -33.082031 17.4375 -26.671875 17.4375 -20.515625 C 17.4375 -18.640625 17.820312 -16.972656 18.59375 -15.515625 C 19.363281 -14.066406 20.691406 -13.34375 22.578125 -13.34375 Z M 22.578125 -13.34375 "/></g></g></g><g fill="#38b6ff" fill-opacity="1"><g transform="translate(1078.85136, 846.180195)"><g/></g></g><g clip-path="url(#89a082bef5)"><g clip-path="url(#03a2fa6728)"><g transform="matrix(1, 0, 0, 1, 458, 532)"><g clip-path="url(#d469cfc364)"><g clip-path="url(#1945b3ef56)"><g clip-path="url(#ee1a26c3ed)"><g clip-path="url(#0435958ba6)"><path fill="#ff66c4" d="M 51.304688 121.800781 L 51.640625 122.972656 L 51.425781 123.359375 C 48.988281 121.949219 47.597656 124.453125 46.042969 125.246094 C 44.269531 126.113281 42.453125 126.878906 40.59375 127.546875 C 40.570312 128.007812 40.542969 128.542969 40.492188 129.324219 C 39.519531 129.351562 37.769531 129.097656 37.644531 129.445312 C 36.953125 131.222656 35.808594 129.023438 34.945312 130.347656 C 35.066406 131.152344 35.242188 132.3125 35.445312 133.605469 L 34.285156 133.0625 L 30.800781 136.238281 C 31.300781 137.019531 31.808594 137.792969 32.585938 139.007812 C 32.339844 139.820312 32.753906 141.425781 30.5625 142.507812 L 32.472656 142.667969 C 33.367188 143.609375 34.367188 144.6875 35.417969 145.800781 L 35.027344 146.617188 L 37.679688 148.011719 L 39.332031 145.421875 C 39.953125 146.214844 40.324219 146.679688 40.789062 147.253906 L 43.644531 146.605469 L 44.488281 147.761719 C 48.007812 146.757812 50.855469 144.363281 54.804688 143.316406 L 55.402344 141.226562 L 56.742188 141.96875 C 57.007812 141.1875 57.261719 140.398438 57.390625 140.058594 C 59.878906 139.167969 62.070312 138.722656 63.871094 137.605469 C 65.234375 136.714844 65.988281 134.917969 67.003906 133.539062 L 69.066406 134.683594 L 69.722656 133.667969 L 70.640625 134.113281 C 73.210938 131.460938 77.21875 131.035156 79.40625 128.015625 L 81.011719 128.570312 C 82.648438 127.179688 83.859375 126.558594 84.910156 126.582031 L 86.144531 124.457031 C 88.40625 124.574219 90.453125 124.203125 91.726562 122.007812 L 92.8125 122.535156 L 93.949219 120.488281 C 95.929688 122.097656 97.304688 119.285156 99.339844 119.625 C 99.363281 119.285156 99.386719 118.777344 99.421875 117.988281 C 99.917969 118.167969 100.359375 118.460938 100.75 118.445312 C 101.300781 118.371094 101.808594 118.179688 102.277344 117.875 C 102.605469 117.6875 102.710938 117.007812 103.019531 116.921875 C 103.6875 116.855469 104.347656 116.894531 105.003906 117.035156 L 105.65625 114.71875 C 108.226562 115.992188 109.871094 114.886719 111.210938 113.210938 C 112.28125 111.636719 112.78125 109.898438 112.710938 107.996094 L 109.449219 105.335938 L 105.894531 104.714844 C 105.136719 105.226562 104.324219 105.625 103.460938 105.914062 C 102.519531 105.929688 101.578125 105.882812 100.644531 105.773438 C 99.664062 105.863281 98.199219 106.605469 97.839844 106.230469 C 96.71875 105.03125 96.433594 108.007812 95.53125 106.53125 C 93.632812 106.882812 91.558594 106.820312 90.488281 108.429688 C 89.101562 108.648438 87.308594 108.453125 86.910156 109.105469 C 86.097656 110.453125 85.433594 108.882812 84.828125 109.367188 C 84.265625 109.945312 83.621094 110.410156 82.898438 110.769531 C 82.320312 110.933594 81.585938 110.667969 81.140625 110.613281 C 79.792969 111.261719 78.597656 112.179688 77.335938 112.300781 C 76.53125 112.375 75.265625 112.800781 75.226562 112.75 C 74.25 111.34375 73.835938 114.488281 72.910156 113.019531 C 71.421875 114.976562 68.441406 114.128906 66.917969 116.21875 C 66.574219 116.6875 65.136719 116.34375 63.824219 116.398438 L 61.539062 118.667969 L 60.726562 118.21875 L 58.46875 120.324219 L 56.839844 119.902344 L 55.296875 122.488281 Z M 51.304688 121.800781 " fill-opacity="1" fill-rule="nonzero"/></g></g></g><g clip-path="url(#85ace06488)"><g clip-path="url(#1aeac6bc12)"><g clip-path="url(#e5ac149bfb)"><path fill="#ff66c4" d="M 52.453125 57.898438 L 54.910156 61.132812 L 56.199219 59.398438 C 58.886719 62.519531 62.542969 62.117188 66.023438 62.570312 L 65.492188 63.847656 C 67.316406 63.324219 67.742188 65.347656 68.757812 65.640625 L 71.703125 64.140625 C 72.210938 65.195312 72.558594 65.871094 72.949219 66.691406 L 73.703125 65.519531 C 75.679688 66.535156 78.558594 65.507812 79.8125 68.164062 L 83.953125 68.296875 L 83.480469 69.4375 L 88.15625 69.847656 L 87.460938 71.097656 L 91.007812 72.273438 L 91.632812 71.328125 C 93.664062 71.945312 94.695312 74.199219 97.070312 74.09375 L 97.371094 73.46875 C 98.34375 73.800781 99.289062 74.199219 100.210938 74.65625 C 101.253906 75.320312 102.257812 76.039062 103.222656 76.808594 L 103.816406 75.957031 C 104.109375 76.269531 104.339844 76.539062 104.835938 77.089844 L 108.140625 77.640625 C 108.34375 77.929688 108.65625 78.355469 109.050781 78.898438 L 109.855469 77.785156 C 111.027344 78.644531 112.183594 79.429688 113.34375 80.257812 L 113.863281 79.316406 C 116.226562 81.96875 119.925781 80.097656 122.914062 82.378906 L 128.671875 79.53125 L 127.050781 73.867188 C 125.460938 73.460938 122.976562 73.5625 121.941406 72.375 C 120.6875 70.960938 118.882812 71.046875 117.6875 69.714844 C 116.976562 68.910156 115.121094 69.117188 113.839844 68.828125 C 111.9375 68.414062 110.964844 66.476562 108.976562 66.054688 C 107.242188 65.523438 105.5625 64.851562 103.9375 64.046875 C 102.917969 63.65625 101.570312 63.636719 100.894531 62.945312 C 100 62.003906 99.441406 61.550781 98.132812 62.046875 C 97.734375 62.160156 96.949219 61.296875 96.363281 60.839844 C 94.214844 59.144531 91.40625 59.160156 89.0625 57.953125 C 87.476562 57.253906 85.851562 56.675781 84.183594 56.210938 C 82.097656 57.035156 80.800781 55.515625 79.492188 53.964844 L 77.386719 54.339844 C 77.097656 53.628906 76.835938 53 76.578125 52.355469 C 73.40625 51.996094 70.421875 51.046875 67.625 49.507812 C 65.324219 48.152344 62.84375 47.4375 60.175781 47.367188 C 58.964844 47.316406 56.894531 47.527344 56.488281 45.238281 L 53.292969 46.152344 L 49.929688 45.441406 L 45.058594 48.664062 C 45.304688 50.234375 46.152344 52.074219 45.679688 53.476562 C 45.03125 55.386719 47.597656 55.992188 46.464844 58.222656 L 48.683594 56.570312 C 48.890625 56.871094 49.277344 57.429688 49.679688 57.996094 C 49.835938 57.699219 49.679688 57.996094 49.433594 58.4375 L 52.253906 59.414062 C 52.273438 59.277344 52.339844 58.71875 52.453125 57.898438 Z M 52.453125 57.898438 " fill-opacity="1" fill-rule="nonzero"/></g></g></g><g clip-path="url(#620cdb9072)"><g clip-path="url(#e04c66a0d2)"><g clip-path="url(#f200f3183a)"><path fill="#ff66c4" d="M 133.796875 47.207031 L 133.304688 48.089844 L 135.148438 48.171875 L 134.78125 49.558594 L 136.550781 49.683594 L 137.558594 53.203125 L 139.527344 53.394531 C 139.417969 56.644531 142.425781 58.15625 143.671875 60.71875 C 144.921875 63.28125 146.972656 65.269531 148.421875 67.738281 L 149.214844 66.316406 L 151.171875 66.890625 L 153.3125 65.082031 C 153.371094 64.832031 153.386719 64.582031 153.359375 64.324219 C 152.839844 62.511719 152.441406 60.664062 151.804688 58.894531 C 151.140625 57.234375 150.382812 55.621094 149.53125 54.050781 C 149.195312 53.039062 148.648438 52.160156 147.890625 51.40625 C 145.519531 49.894531 145.078125 46.980469 143.332031 45.304688 C 141.582031 43.625 140.773438 41.175781 139.121094 39.386719 C 137.945312 38.117188 137.195312 36.453125 136.027344 35.183594 C 134.472656 33.472656 133.394531 31.460938 132.046875 29.632812 C 130.835938 27.863281 129.5 26.199219 128.03125 24.640625 C 126.0625 22.738281 124.894531 20.292969 123.230469 18.199219 C 122.136719 16.800781 121.308594 15.25 119.726562 14.316406 C 119.589844 11.960938 117.078125 11.421875 116.273438 9.75 C 115.472656 8.078125 114.203125 7.949219 113.148438 7.1875 C 110.367188 7.847656 107.640625 8.523438 105.714844 10.820312 C 107.179688 12.941406 107.179688 12.941406 106.820312 15.113281 C 108.480469 16.734375 110.585938 18.1875 111.785156 20.203125 C 112.984375 22.21875 114.941406 23.875 116.320312 25.800781 C 117.671875 27.847656 119.316406 29.625 121.257812 31.128906 C 122.457031 32.152344 123.324219 33.402344 123.863281 34.882812 C 124.515625 36.277344 126.539062 37.15625 126.871094 38.523438 C 127.332031 40.390625 129.117188 40.476562 129.964844 41.8125 C 131.0625 43.558594 132.699219 45.125 133.796875 47.207031 Z M 133.796875 47.207031 " fill-opacity="1" fill-rule="nonzero"/></g></g></g></g></g></g></g><path fill="#38b6ff" d="M 841.863281 486.039062 C 840.667969 484.84375 839.058594 484.183594 837.347656 484.183594 C 835.644531 484.183594 834.046875 484.84375 832.855469 486.035156 L 814.429688 504.457031 L 852.625 542.652344 L 871.050781 524.226562 C 872.246094 523.035156 872.902344 521.4375 872.902344 519.730469 C 872.902344 518.019531 872.246094 516.421875 871.050781 515.226562 L 841.863281 486.039062 " fill-opacity="1" fill-rule="nonzero"/><path fill="#e4dcc9" d="M 714.246094 645.242188 C 713.078125 644.925781 712.15625 644.011719 711.839844 642.835938 L 708.429688 630.175781 L 695.710938 624.972656 L 683.738281 660.457031 L 696.628906 673.347656 L 732.113281 661.378906 L 726.910156 648.644531 L 714.246094 645.242188 " fill-opacity="1" fill-rule="nonzero"/><path fill="#ff66c4" d="M 822.046875 521.71875 L 813.328125 530.4375 L 715.09375 628.675781 L 717.914062 639.167969 L 728.40625 641.988281 L 826.644531 543.753906 L 835.363281 535.035156 L 822.046875 521.71875 " fill-opacity="1" fill-rule="nonzero"/><path fill="#5170ff" d="M 817.226562 516.898438 L 809.609375 509.28125 L 801.996094 516.894531 L 699.675781 619.226562 L 710.476562 623.644531 L 808.507812 525.617188 Z M 840.1875 539.855469 L 831.464844 548.578125 L 733.4375 646.601562 L 737.859375 657.414062 L 840.515625 554.765625 L 847.800781 547.472656 L 840.1875 539.855469 " fill-opacity="1" fill-rule="nonzero"/><g clip-path="url(#64d18b064a)"><path fill="#000000" d="M 871.050781 524.226562 L 852.625 542.652344 L 814.429688 504.457031 L 832.855469 486.035156 C 834.046875 484.84375 835.644531 484.183594 837.347656 484.183594 C 839.058594 484.183594 840.667969 484.84375 841.863281 486.039062 L 871.050781 515.226562 C 872.246094 516.421875 872.902344 518.019531 872.902344 519.730469 C 872.902344 521.4375 872.246094 523.035156 871.050781 524.226562 Z M 840.515625 554.765625 L 737.859375 657.414062 L 733.4375 646.601562 L 831.464844 548.578125 L 840.1875 539.855469 L 847.800781 547.472656 Z M 696.628906 673.347656 L 683.738281 660.457031 L 695.710938 624.972656 L 708.429688 630.175781 L 711.839844 642.835938 C 712.15625 644.011719 713.078125 644.925781 714.246094 645.242188 L 726.910156 648.644531 L 732.113281 661.378906 Z M 822.046875 521.71875 L 835.363281 535.035156 L 826.644531 543.753906 L 728.40625 641.988281 L 717.914062 639.167969 L 715.09375 628.675781 L 813.328125 530.4375 Z M 801.996094 516.894531 L 809.609375 509.28125 L 817.226562 516.898438 L 808.507812 525.617188 L 710.476562 623.644531 L 699.675781 619.226562 Z M 875.871094 510.40625 L 846.683594 481.214844 C 841.707031 476.25 832.996094 476.246094 828.03125 481.210938 L 691.230469 618.03125 C 690.867188 618.394531 690.5625 618.859375 690.378906 619.453125 C 690.195312 620.042969 668.515625 684.25 668.515625 684.25 C 668.308594 684.863281 667.902344 686.152344 669.335938 687.75 C 670.628906 689.1875 672.476562 688.6875 672.835938 688.566406 C 672.835938 688.566406 737.238281 666.898438 737.730469 666.679688 C 738.226562 666.464844 738.726562 666.1875 739.054688 665.863281 L 875.867188 529.050781 C 878.351562 526.570312 879.722656 523.261719 879.722656 519.730469 C 879.722656 516.199219 878.351562 512.886719 875.871094 510.40625 " fill-opacity="1" fill-rule="nonzero"/></g></svg>